<?xml version="1.0" encoding="iso-8859-1"?>
<!-- Generator: Adobe Illustrator 19.0.0, SVG Export Plug-In . SVG Version: 6.00 Build 0)  -->
<svg version="1.1" id="Layer_1" xmlns="http://www.w3.org/2000/svg" xmlns:xlink="http://www.w3.org/1999/xlink" x="0px" y="0px"
	 viewBox="0 0 512 512" style="enable-background:new 0 0 512 512;" xml:space="preserve">
<path style="fill:#5D9BEB;" d="M512,256.006C512,397.402,397.394,512.004,256.004,512C114.606,512.004,0,397.402,0,256.006
	C-0.007,114.61,114.606,0,256.004,0C397.394,0,512,114.614,512,256.006z"/>
<path style="fill:#4988DB;" d="M512,256.005c0-28.768-4.816-56.395-13.565-82.207c-0.128-0.122-0.241-0.255-0.372-0.373
	c-0.48-0.535-63.163-63.217-63.698-63.698c-3.61-4.025-8.793-6.608-14.612-6.608H92.247c-10.865,0-19.703,8.838-19.703,19.703
	v266.353c0,5.819,2.583,11.002,6.607,14.611c0.48,0.535,0.982,1.038,1.518,1.518c0.48,0.533,91.977,92.031,92.511,92.511
	c0.198,0.22,0.419,0.415,0.625,0.625c25.809,8.746,53.433,13.559,82.198,13.558C397.394,512.004,512,397.401,512,256.005z"/>
<path style="fill:#F4F6F9;" d="M419.753,103.12H92.247c-10.865,0-19.703,8.838-19.703,19.703v266.353
	c0,10.865,8.838,19.703,19.703,19.703h327.505c10.865,0,19.703-8.838,19.703-19.703V122.823
	C439.456,111.958,430.618,103.12,419.753,103.12z M424.169,389.177c0,2.433-1.982,4.415-4.415,4.415H92.247
	c-2.433,0-4.415-1.982-4.415-4.415V263.644h54.829c1.956,0,3.837-0.75,5.255-2.094l20.868-19.759l17.975,49.04
	c1.157,3.154,4.247,5.147,7.588,5.002c3.351-0.179,6.196-2.527,7.006-5.786l24.82-99.708l11.413,172.848
	c0.242,3.65,3.035,6.618,6.662,7.081c0.324,0.041,0.65,0.06,0.971,0.06c3.259,0,6.207-2.083,7.252-5.241l38.202-115.41
	l20.988,41.057c1.329,2.594,3.677,4.035,6.939,4.165c2.915-0.052,5.55-1.758,6.789-4.397l12.597-26.859h28.94
	c3.489,4.615,8.971,7.644,15.2,7.644c13.407,0,19.11-5.707,19.11-19.107c0-10.546-8.558-19.113-19.11-19.113
	c-9.241,0-16.951,6.571-18.724,15.289h-30.273c-2.963,0-5.662,1.713-6.919,4.397l-8.036,17.132l-22.204-43.438
	c-1.404-2.747-4.33-4.404-7.39-4.143c-3.075,0.235-5.707,2.291-6.673,5.218l-31.644,95.591l-12.06-182.609
	c-0.25-3.759-3.199-6.774-6.949-7.11c-3.759-0.291-7.193,2.116-8.096,5.766l-30.621,123.013l-13.395-36.551
	c-0.884-2.415-2.926-4.222-5.43-4.811c-2.5-0.578-5.136,0.127-7.002,1.892l-27.093,25.653H87.831V122.823
	c0-2.433,1.982-4.415,4.415-4.415h327.505c2.433,0,4.415,1.982,4.415,4.415v266.353h0.003V389.177z"/>
<g>
</g>
<g>
</g>
<g>
</g>
<g>
</g>
<g>
</g>
<g>
</g>
<g>
</g>
<g>
</g>
<g>
</g>
<g>
</g>
<g>
</g>
<g>
</g>
<g>
</g>
<g>
</g>
<g>
</g>
</svg>
