<?xml version="1.0" encoding="iso-8859-1"?>
<!-- Generator: Adobe Illustrator 19.0.0, SVG Export Plug-In . SVG Version: 6.00 Build 0)  -->
<svg version="1.1" id="Layer_1" xmlns="http://www.w3.org/2000/svg" xmlns:xlink="http://www.w3.org/1999/xlink" x="0px" y="0px"
	 viewBox="0 0 297 297" style="enable-background:new 0 0 297 297;" xml:space="preserve">
<g>
	<g>
		<g>
			<path d="M277.47,49.459c-13.551-13.78-33.892-21.064-58.824-21.064c-30.677,0-57.294,17.727-70.144,43.475
				c-12.85-25.748-39.466-43.475-70.144-43.475c-23.853,0-44.62,7.79-58.475,21.934C6.41,64.085-0.458,83.648,0.024,106.902
				c0.273,13.19,3.447,26.465,9.483,39.782h51.16l18.615-55.847c1.115-3.345,4.247-5.602,7.773-5.602s6.658,2.256,7.773,5.602
				l33.193,99.58l12.71-38.131c1.115-3.345,4.247-5.602,7.773-5.602H287.38c5.831-12.691,9.37-26.022,9.602-39.815
				C297.393,82.359,290.828,63.043,277.47,49.459z"/>
			<path d="M135.792,218.917c-1.115,3.345-4.247,5.602-7.773,5.602c-3.526,0-6.658-2.256-7.773-5.602l-33.193-99.58l-12.71,38.131
				c-1.115,3.345-4.247,5.602-7.773,5.602H18.377c12.35,19.664,30.885,39.377,55.545,58.996
				c35.138,27.955,69.518,44.986,70.965,45.697c1.14,0.561,2.377,0.841,3.616,0.841c1.252,0,2.503-0.287,3.654-0.86
				c4.537-2.26,88.196-44.559,126.254-104.674H154.407L135.792,218.917z"/>
		</g>
	</g>
</g>
<g>
</g>
<g>
</g>
<g>
</g>
<g>
</g>
<g>
</g>
<g>
</g>
<g>
</g>
<g>
</g>
<g>
</g>
<g>
</g>
<g>
</g>
<g>
</g>
<g>
</g>
<g>
</g>
<g>
</g>
</svg>
