<?xml version="1.0" encoding="iso-8859-1"?>
<!-- Generator: Adobe Illustrator 18.1.1, SVG Export Plug-In . SVG Version: 6.00 Build 0)  -->
<svg version="1.1" id="Capa_1" xmlns="http://www.w3.org/2000/svg" xmlns:xlink="http://www.w3.org/1999/xlink" x="0px" y="0px"
	 viewBox="0 0 14.232 14.232" style="enable-background:new 0 0 14.232 14.232;" xml:space="preserve">
<g>
	<path style="fill:#030104;" d="M12.953,4.884H12.59C11.997,2.088,9.747,0,7.063,0C4.377,0,2.127,2.088,1.534,4.884H1.278
		c-0.443,0-0.803,0.359-0.803,0.803v4.349c0,0.443,0.359,0.803,0.803,0.803h1.205c0.443,0,0.803-0.359,0.803-0.803V5.687
		c0-0.443-0.359-0.803-0.803-0.803H2.26c0.577-2.358,2.508-4.1,4.803-4.1c2.294,0,4.225,1.741,4.801,4.1H11.75
		c-0.443,0-0.803,0.359-0.803,0.803v4.349c0,0.389,0.276,0.713,0.643,0.787c-0.443,0.83-1.438,1.933-3.65,2.183
		c-0.109-0.246-0.355-0.419-0.643-0.419H5.949c-0.389,0-0.704,0.315-0.704,0.704v0.237c0,0.389,0.315,0.704,0.704,0.704h1.348
		c0.327,0,0.6-0.225,0.679-0.525c2.778-0.306,3.917-1.858,4.37-2.868h0.608c0.443,0,0.803-0.359,0.803-0.803V5.687
		C13.756,5.243,13.396,4.884,12.953,4.884z"/>
</g>
<g>
</g>
<g>
</g>
<g>
</g>
<g>
</g>
<g>
</g>
<g>
</g>
<g>
</g>
<g>
</g>
<g>
</g>
<g>
</g>
<g>
</g>
<g>
</g>
<g>
</g>
<g>
</g>
<g>
</g>
</svg>
